<svg width="1024" height="1024" viewBox="0 0 1024 1024" fill="none" xmlns="http://www.w3.org/2000/svg">
<path d="M192 674C247.228 674 292 613.228 292 558V299C345 320.5 383.659 306.517 438 282C545.5 233.5 594.501 314.772 587.5 351C576.002 410.5 663.085 281.922 599 222C563.063 188.398 532 161.5 421 180.2C355.312 191.266 301.5 183 278 167.602C272.648 163.02 266.072 159.827 258.83 158.581C256.611 158.199 254.329 158 252 158C229.909 158 212 175.909 212 198V510.278C211.406 510.287 210.81 510.297 210.213 510.306C204.307 510.401 198.22 510.499 192 510.499C136.772 510.499 92 518.771 92 574C92 629.228 136.772 674 192 674Z" fill="#D9D9D9"/>
<path d="M452 848.111C452 826.633 463.939 809.222 478.667 809.222H905.333C920.061 809.222 932 826.633 932 848.111C932 869.589 920.061 887 905.333 887H478.667C463.939 887 452 869.589 452 848.111Z" fill="#D9D9D9"/>
<path d="M452 848.111C452 826.633 463.939 809.222 478.667 809.222H905.333C920.061 809.222 932 826.633 932 848.111C932 869.589 920.061 887 905.333 887H478.667C463.939 887 452 869.589 452 848.111Z" fill="#D9D9D9"/>
<path d="M660.627 504.882C677.634 490.373 706.366 490.373 723.373 504.882L900.218 655.759C926.073 677.818 906.583 714 868.845 714H515.155C477.417 714 457.926 677.818 483.782 655.759L660.627 504.882Z" fill="#D9D9D9"/>
</svg>
